<?xml version="1.0" encoding="UTF-8" standalone="no"?>
<!-- Created with Inkscape (http://www.inkscape.org/) -->

<svg
   viewBox="0 0 63.537193 56.175117"
   xmlns:inkscape="http://www.inkscape.org/namespaces/inkscape"
   xmlns:sodipodi="http://sodipodi.sourceforge.net/DTD/sodipodi-0.dtd"
   xmlns="http://www.w3.org/2000/svg"
   xmlns:svg="http://www.w3.org/2000/svg">
 
  <defs
     id="defs2" />
  <g
     inkscape:label="Layer 1"
     inkscape:groupmode="layer"
     id="layer1"
     transform="translate(-66.860941,-74.940939)">
    <g
       id="g931">
      <g
         id="g868"
         transform="matrix(0.66658776,-0.18534747,0.17861165,0.69172617,9.3468524,58.917716)">
        <path
           id="rect290"
           style="fill:#000000;stroke-width:17.3204;stroke-linecap:round;paint-order:stroke fill markers"
           d="m 21.645303,157.75069 -30.9694351,2.8e-4 -0.044054,7.93737 31.0136621,-4.9e-4 z"
           transform="rotate(-46.151524)" />
        <path
           id="rect348"
           style="fill:#000000;stroke-width:17.3204;stroke-linecap:round;paint-order:stroke fill markers"
           d="m 67.457925,158.144 c -0.71735,-0.71735 -1.709847,-1.15978 -2.809189,-1.15978 l -37.006629,-5e-5 0.302667,7.93713 36.704057,4e-4 c 2.198686,0 3.96869,-1.77046 3.96869,-3.96915 0,-1.09934 -0.442245,-2.0912 -1.159596,-2.80855 z"
           transform="rotate(-44.379451)" />
        <rect
           style="fill:#000000;stroke-width:8.08396;stroke-linecap:round;paint-order:stroke fill markers"
           id="rect350"
           width="29.497564"
           height="1.3229166"
           x="33.009815"
           y="155.02455"
           ry="1.4393066"
           rx="1.4393066"
           transform="rotate(-45)" />
        <rect
           style="fill:#000000;stroke-width:8.73168;stroke-linecap:round;paint-order:stroke fill markers"
           id="rect352"
           width="8.9649467"
           height="1.3229166"
           x="160.7485"
           y="-42.751648"
           rx="1.445067"
           ry="1.4336145"
           transform="rotate(38.791204)" />
        <path
           id="rect397"
           style="fill:#000000;stroke-width:10.8131;stroke-linecap:round;paint-order:stroke fill markers"
           d="m 106.53148,116.81871 -7.725108,13.69064 0.474906,0.46715 12.905672,-8.64133 z" />
      </g>
      <path
         style="fill:#000000;stroke-width:15.0903;stroke-linecap:round;paint-order:stroke fill markers"
         id="path922"
         d="m 66.860944,101.88846 c 4.966492,0.26922 9.49408,-1.65843 13.923263,-3.536543 3.609583,-1.497449 7.121088,-3.283486 10.887426,-4.415 -0.852059,-0.357612 2.396833,-0.07147 1.813871,-0.243633 -0.272,-0.08028 -0.595433,-0.06722 -0.853336,0.04741 -0.150128,0.06678 0.327913,0.05914 0.481809,0.117707 0.39982,0.152051 0.402122,0.236002 0.664329,0.544184 0.0551,0.155058 0.14496,0.30272 0.16525,0.465162 0.11965,0.957801 -0.563408,1.976203 -1.095296,2.713707 -1.183352,1.640789 -2.035565,2.465686 -3.459919,4.020946 -3.318777,3.42705 -7.081904,6.46814 -11.269762,8.90871 -2.17102,1.2652 -3.08323,1.61814 -5.302535,2.62652 -1.516757,0.60976 -3.088375,1.16415 -4.755724,1.21147 -0.228326,0.006 0.499502,0.0395 0.677792,-0.0955 0.09001,-0.0682 -0.223598,-0.16533 -0.194215,-0.2708 0.04856,-0.17433 0.254538,-0.26839 0.381806,-0.40257 2.365993,-1.63094 5.290223,-2.19165 8.126774,-2.60031 3.197622,-0.39246 6.501604,-0.32661 9.616021,-1.21358 0.603533,-0.17188 1.181139,-0.41663 1.771712,-0.62494 1.727975,-0.78705 3.315968,-1.79849 4.890844,-2.82353 0.257892,-0.16786 0.507372,-0.3481 0.774782,-0.50204 0.0649,-0.0372 0.29169,-0.074 0.216,-0.0684 -0.59621,0.0439 -1.188994,0.1224 -1.783487,0.18364 -2.101244,2.06088 -3.983716,4.30176 -5.818155,6.57523 -1.552249,1.99695 -3.152968,3.96033 -5.062256,5.66845 -1.289089,1.15328 -1.58597,1.3037 -2.979568,2.28393 -1.191016,0.71422 -2.45141,1.46957 -3.8717,1.70051 -0.292073,0.0475 -1.021218,0.27209 -0.888786,0.0212 0.865958,-1.63992 1.063161,0.61243 0.921718,-0.44663 0.142821,-0.13253 0.264873,-0.2887 0.428483,-0.39765 1.797768,-1.19731 4.614328,-1.61686 6.741898,-1.95108 2.854848,-0.37212 3.432983,-0.32676 5.607956,-0.26082 2.067073,-7.6e-4 2.077836,0.0493 3.62479,-0.0614 0.303551,-0.0217 0.773337,-0.33597 0.909489,-0.0784 0.133186,0.25195 -0.650009,-0.0468 -0.882937,0.1287 -0.11784,0.0888 0.202139,0.23668 0.209076,0.37905 0.01071,0.21905 -0.106266,0.42693 -0.159395,0.64041 -0.159974,0.5942 -1.147071,1.43225 -1.003895,2.07015 0.179177,0.79831 1.947822,0.95695 2.562811,1.08288 1.765108,0.45548 2.760688,1.31422 3.226748,2.96614 0.22102,0.72034 -0.0919,1.74323 0.5357,2.32533 0.10521,0.0976 0.24348,0.15702 0.36522,0.23554 0.8411,0.30199 1.64921,0.23379 2.29493,0.89323 0.31435,0.40529 0.18323,1.13747 -0.43959,1.11472 0.43165,-0.0184 0.86329,-0.0367 1.294944,-0.055 0,0 -1.529374,0.18763 -1.529374,0.18763 v 0 c 0.58753,0.0242 1.17506,0.0485 1.762574,0.0726 0.616,-0.20713 0.78572,-0.92125 0.44627,-1.42393 -0.66556,-0.76779 -1.359704,-0.68529 -2.302584,-0.93793 -0.11953,-0.0597 -0.25323,-0.0992 -0.35861,-0.17929 -0.66572,-0.50632 -0.31552,-1.59711 -0.54223,-2.26982 -0.46008,-1.69186 -1.45772,-2.63225 -3.26267,-3.12264 -0.4239,-0.0822 -2.373357,-0.29729 -2.527974,-0.85669 -0.161165,-0.58307 0.882621,-1.50754 1.000194,-2.07105 0.01925,-0.0845 0.408377,-1.11409 -0.05898,-1.24434 -0.968982,-0.27005 -2.94286,-0.12138 -4.06104,-0.0198 -0.129182,0.0117 0.259542,0.003 0.389309,0.004 -2.862623,-0.0907 -5.74046,-0.16795 -8.577542,0.28233 -1.964349,0.31837 -5.213966,0.8327 -6.787428,2.043 -0.182676,0.14045 -0.294918,0.34726 -0.442374,0.52088 0.136738,1.07356 -0.08827,0.54322 2.114294,0.64676 1.748488,0.0822 3.326568,-0.99386 4.734476,-1.80994 1.396964,-0.99628 1.678168,-1.13918 2.972638,-2.30579 1.907657,-1.71924 3.516287,-3.68585 5.07834,-5.68467 1.844061,-2.27901 3.733779,-4.5272 5.867507,-6.57315 -0.42714,-0.14879 -0.839681,-0.34246 -1.281391,-0.44638 -0.07088,-0.0167 -0.13168,0.0609 -0.192146,0.0996 -0.253575,0.16262 -0.498074,0.33757 -0.748977,0.50386 -1.557726,1.03239 -3.147403,2.02465 -4.875826,2.78941 -0.589072,0.20259 -1.16579,0.44078 -1.767224,0.60776 -3.121856,0.86663 -6.424126,0.79649 -9.622855,1.20229 -2.861154,0.42616 -5.830918,1.00149 -8.180057,2.70586 -0.130579,0.19089 -0.353063,0.34829 -0.391751,0.57271 -0.02574,0.14918 0.0674,0.37038 0.223884,0.40097 2.441808,0.47738 4.813274,-0.28346 7.018458,-1.17051 2.206532,-1.01921 3.111601,-1.37704 5.272013,-2.6485 4.186631,-2.46397 7.953066,-5.51727 11.291359,-8.9426 1.376914,-1.48793 2.365485,-2.455176 3.525283,-4.043461 0.57262,-0.784176 1.24303,-1.821804 1.13204,-2.832853 -0.0195,-0.178072 -0.11008,-0.342569 -0.16512,-0.513846 -0.096,-0.128714 -0.1701,-0.274924 -0.28796,-0.386217 -0.97324,-0.91901 -3.552268,-0.419945 -4.842669,-0.164746 -3.737043,1.162438 -7.226183,2.946186 -10.820559,4.437706 -2.559109,1.077303 -5.094946,2.152337 -7.808859,2.842827 -3.790677,0.96445 -0.428941,0.0201 -3.615354,0.60942 -0.145319,0.0268 0.295624,0.0164 0.443438,0.0247 0,0 -1.51541,0.21577 -1.51541,0.21577 z" />
    </g>
  </g>
</svg>
