<svg xmlns="http://www.w3.org/2000/svg" xml:space="preserve" width="14" height="14" viewBox="0 0 7.4083 7.4083">
  <path d="M3.7 0a.2643.2643 0 0 0-.26.268v.793a.2643.2643 0 1 0 .5286 0V.268A.2643.2643 0 0 0 3.7 0zM1.2717 1.0078a.2643.2643 0 0 0-.1838.4537l.5606.5607a.2643.2643 0 1 0 .3738-.3738l-.5607-.5606a.2643.2643 0 0 0-.19-.08zm4.8567 0a.2643.2643 0 0 0-.1817.08l-.5606.5606a.2643.2643 0 1 0 .3737.3738l.5606-.5607a.2643.2643 0 0 0-.192-.4537zm-2.4242.846A1.8502 1.8502 0 0 0 1.854 3.7042a1.8502 1.8502 0 0 0 1.8502 1.8503A1.8502 1.8502 0 0 0 5.5544 3.704a1.8502 1.8502 0 0 0-1.8502-1.85zM.268 3.4399a.2643.2643 0 1 0 0 .5286h.793a.2643.2643 0 1 0 0-.5286zm6.0792 0a.2643.2643 0 1 0 0 .5286h.793a.2643.2643 0 1 0 0-.5286zM1.8303 5.306a.2643.2643 0 0 0-.1818.08l-.5606.5607a.2643.2643 0 1 0 .3737.3738l.5607-.5607a.2643.2643 0 0 0-.192-.4538zm3.74 0a.2643.2643 0 0 0-.1842.4538l.5606.5607a.2643.2643 0 1 0 .3737-.3738l-.5606-.5606a.2643.2643 0 0 0-.1894-.08zM3.7 6.0794a.2643.2643 0 0 0-.2601.268v.7929a.2643.2643 0 1 0 .5286 0v-.793a.2643.2643 0 0 0-.2685-.268Z"/>
</svg>
