<?xml version="1.0" standalone="no"?>
<!DOCTYPE svg PUBLIC "-//W3C//DTD SVG 20010904//EN"
 "http://www.w3.org/TR/2001/REC-SVG-20010904/DTD/svg10.dtd">
<svg version="1.0" xmlns="http://www.w3.org/2000/svg"
 width="960.000000pt" height="960.000000pt" viewBox="0 0 960.000000 960.000000"
 preserveAspectRatio="xMidYMid meet">
<metadata>
Created by potrace 1.14, written by Peter Selinger 2001-2017
</metadata>
<g transform="translate(0.000000,960.000000) scale(0.100000,-0.100000)"
fill="#000000" stroke="none">
<path d="M9078 9025 c-56 -15 -118 -51 -169 -97 -37 -33 -109 -138 -109 -158
0 -5 -3 -10 -8 -10 -4 0 -13 -15 -21 -32 -8 -18 -17 -35 -20 -38 -3 -3 -17
-25 -30 -50 -39 -73 -39 -73 -104 -42 -54 26 -69 43 -47 57 22 13 71 128 74
172 4 50 -9 73 -42 73 -31 0 -94 -72 -141 -161 -25 -46 -47 -86 -50 -89 -3 -3
-14 -21 -24 -40 -9 -19 -33 -62 -52 -95 -19 -33 -38 -67 -42 -75 -4 -8 -31
-57 -60 -109 -29 -51 -53 -97 -53 -102 0 -5 -4 -9 -10 -9 -5 0 -9 -3 -8 -7 2
-5 -22 -51 -51 -103 -64 -113 -86 -152 -114 -205 -12 -22 -26 -43 -32 -47 -5
-4 -6 -8 -2 -8 5 0 -1 -13 -12 -29 -12 -16 -21 -31 -21 -34 0 -2 -34 -64 -75
-137 -41 -73 -75 -136 -75 -141 0 -5 -3 -9 -7 -9 -5 0 -19 -25 -32 -55 -14
-30 -28 -55 -32 -55 -4 0 -9 -8 -12 -17 -3 -10 -21 -45 -40 -78 -18 -33 -65
-116 -103 -185 -38 -69 -74 -134 -81 -145 -7 -11 -17 -31 -23 -45 -6 -14 -19
-33 -27 -42 -9 -10 -12 -18 -8 -18 4 0 2 -8 -6 -17 -8 -10 -24 -36 -36 -58
-11 -22 -30 -56 -42 -75 -11 -19 -24 -42 -28 -50 -4 -8 -36 -67 -72 -130 -35
-63 -76 -137 -90 -165 -14 -27 -28 -52 -31 -55 -18 -17 -37 -82 -36 -125 1
-48 2 -50 32 -53 39 -4 93 47 131 122 14 28 28 53 32 56 3 3 17 28 31 55 13
28 27 52 30 55 3 3 14 21 23 40 10 19 22 42 27 50 15 23 120 212 120 216 0 2
13 25 29 52 16 27 50 89 77 138 26 49 50 91 54 94 3 3 16 25 28 50 12 25 36
70 53 100 89 157 171 304 209 375 23 44 46 85 50 90 4 6 22 37 40 70 19 33 49
87 67 120 19 33 40 72 46 88 6 15 15 27 19 27 4 0 8 6 8 14 0 7 9 25 21 40 11
14 17 26 13 26 -4 0 -1 8 7 18 8 9 21 31 29 47 8 17 18 32 21 35 3 3 12 19 21
35 31 61 80 150 87 160 4 5 30 51 56 100 26 50 49 91 50 93 2 2 30 -9 64 -24
l60 -27 -46 -86 c-25 -47 -53 -97 -63 -111 -10 -14 -60 -101 -113 -195 -52
-93 -104 -186 -116 -205 -20 -35 -72 -126 -108 -190 -11 -19 -84 -148 -163
-285 -78 -138 -154 -270 -168 -295 -13 -25 -28 -49 -32 -55 -4 -5 -21 -35 -37
-65 -55 -101 -86 -155 -93 -165 -8 -11 -28 -46 -86 -152 -21 -37 -40 -70 -43
-73 -3 -3 -16 -25 -29 -50 -13 -25 -39 -72 -59 -105 -45 -77 -78 -136 -116
-205 -16 -30 -35 -62 -42 -70 -7 -8 -19 -28 -27 -45 -8 -16 -27 -52 -43 -80
-16 -27 -36 -63 -45 -80 -83 -148 -125 -221 -130 -225 -3 -3 -11 -16 -17 -30
-13 -26 -23 -44 -111 -196 -51 -90 -60 -114 -43 -114 4 0 89 -46 187 -101 259
-147 253 -143 326 -183 37 -19 97 -53 133 -75 l65 -40 39 67 c21 37 62 107 90
155 28 48 51 92 51 97 0 6 5 10 10 10 6 0 10 4 10 10 0 5 24 50 53 100 28 50
61 108 73 128 11 20 33 60 49 87 16 28 36 64 45 80 9 17 62 109 117 205 55 96
109 191 120 210 11 19 66 116 123 215 134 235 133 233 198 350 31 55 62 106
69 113 7 7 13 18 13 24 0 6 20 44 45 85 25 40 45 78 45 83 0 6 5 10 10 10 6 0
10 5 10 10 0 6 35 73 79 148 43 75 88 153 99 173 11 20 26 47 34 60 7 13 18
27 23 31 6 4 6 8 2 8 -5 0 1 12 12 26 12 15 21 33 21 40 0 7 6 19 13 26 7 7
29 42 48 78 18 35 40 71 47 78 6 7 12 18 12 24 0 5 8 22 19 36 10 15 29 47 43
72 62 114 92 167 153 271 36 61 65 113 65 115 0 2 17 32 38 66 21 35 58 103
82 151 41 82 44 95 46 173 3 141 -34 240 -124 330 -77 77 -163 116 -266 119
-45 2 -102 -3 -128 -10z"/>
<path d="M3969 6256 c-2 -2 -44 -7 -94 -10 -112 -7 -166 -14 -230 -27 -27 -5
-66 -12 -85 -15 -31 -5 -184 -53 -235 -74 -11 -4 -67 -25 -125 -45 -58 -21
-118 -44 -135 -51 -16 -7 -102 -43 -190 -79 -88 -37 -178 -75 -200 -85 -22
-10 -139 -62 -260 -115 -121 -53 -243 -107 -272 -121 -28 -13 -54 -24 -56 -24
-3 0 -26 -10 -53 -22 -27 -12 -51 -22 -54 -23 -3 0 -31 -13 -64 -28 -32 -15
-62 -27 -67 -27 -5 0 -17 -4 -27 -10 -20 -11 -65 -30 -152 -65 -36 -14 -76
-32 -90 -39 -14 -8 -27 -14 -30 -14 -7 -1 -37 -12 -80 -29 -58 -24 -244 -95
-255 -98 -5 -1 -21 -7 -35 -12 -66 -27 -358 -120 -436 -138 -10 -3 -55 -14
-99 -25 -44 -11 -89 -23 -100 -25 -11 -3 -31 -8 -45 -11 -14 -4 -59 -8 -101
-9 -67 -3 -122 -9 -169 -20 -8 -2 -23 -4 -33 -4 -10 -1 -15 -5 -12 -11 3 -6
-5 -11 -19 -11 -14 -1 -35 -3 -46 -4 -11 -1 -32 -3 -46 -4 -14 0 -23 -5 -20
-9 6 -11 381 -3 381 8 0 1 18 3 40 5 66 5 115 13 225 35 58 12 117 23 132 26
15 3 66 16 115 30 48 14 97 27 108 29 49 11 386 125 465 158 14 6 27 11 30 11
6 1 68 25 95 37 11 4 49 20 85 34 36 15 79 32 95 40 17 7 98 41 180 75 83 34
168 70 190 80 22 10 85 37 140 60 55 23 107 46 115 51 8 5 22 12 30 15 21 8
113 47 185 79 33 15 74 33 90 40 17 8 60 27 97 43 37 17 69 28 71 26 2 -3 10
2 17 11 7 8 19 15 26 15 8 0 22 4 32 9 15 9 49 22 62 26 3 0 21 8 40 17 85 40
507 198 570 213 8 2 15 4 15 5 0 2 38 11 52 12 9 1 10 5 2 14 -5 7 -6 14 -2
17 11 6 171 0 208 -8 74 -16 139 -89 147 -165 17 -148 -132 -397 -441 -739
-42 -47 -96 -108 -121 -135 -70 -79 -437 -444 -519 -516 -41 -36 -79 -70 -86
-77 -7 -6 -32 -29 -57 -50 -24 -21 -71 -60 -103 -88 -32 -27 -65 -54 -74 -59
-9 -5 -18 -13 -21 -17 -3 -4 -55 -46 -115 -93 -61 -47 -121 -94 -135 -105 -27
-22 -92 -68 -180 -128 -30 -21 -57 -40 -60 -43 -10 -12 -265 -177 -400 -258
-76 -47 -93 -53 -160 -58 -41 -3 -91 -8 -110 -9 -19 -2 -35 -4 -35 -5 0 0 -22
-3 -50 -5 -27 -2 -63 -6 -80 -9 -16 -2 -55 -8 -85 -11 -30 -4 -58 -9 -62 -11
-4 -3 -27 -7 -50 -9 -24 -3 -56 -8 -73 -10 -16 -3 -41 -8 -55 -10 -14 -2 -47
-9 -75 -15 -27 -6 -59 -13 -70 -15 -11 -3 -56 -14 -100 -26 -100 -26 -97 -25
-115 -31 -8 -3 -53 -18 -100 -33 -47 -16 -123 -45 -168 -67 -46 -21 -85 -38
-87 -38 -7 0 -153 -86 -185 -109 -44 -32 -90 -81 -91 -98 -2 -17 -2 -40 0 -53
4 -35 220 -54 411 -37 41 4 131 21 200 37 69 17 136 33 150 36 50 11 367 134
448 173 45 23 84 41 86 41 2 0 43 18 90 40 47 22 89 40 92 39 4 0 10 3 13 8 3
4 54 33 113 63 124 64 147 76 208 111 25 14 63 27 85 28 22 1 58 4 80 6 22 2
81 7 130 10 91 7 100 7 215 20 36 4 81 8 100 10 86 9 183 22 210 30 8 2 35 6
60 9 25 3 60 10 78 15 17 5 32 8 32 6 0 -3 11 0 25 5 14 5 36 12 48 14 12 3
33 7 47 10 84 18 298 102 437 171 89 44 157 74 150 65 -6 -8 -42 -49 -78 -90
-36 -41 -77 -88 -90 -104 -13 -16 -29 -34 -35 -40 -6 -6 -59 -70 -118 -141
-60 -72 -116 -140 -126 -152 -22 -26 -131 -164 -169 -212 -14 -19 -40 -51 -56
-70 -17 -20 -57 -70 -90 -111 -33 -41 -67 -81 -75 -90 -8 -9 -35 -40 -60 -69
-209 -247 -550 -563 -620 -575 -19 -3 -46 -8 -60 -10 -14 -3 -41 -7 -60 -10
-19 -3 -46 -8 -60 -11 -14 -3 -38 -8 -55 -11 -16 -3 -50 -10 -75 -15 -25 -6
-57 -12 -71 -14 -37 -5 -210 -52 -299 -82 -129 -43 -259 -113 -317 -170 -48
-49 -51 -55 -46 -90 11 -73 2 -70 200 -66 242 4 278 8 387 45 101 34 444 215
454 240 2 4 10 8 17 8 7 0 15 4 17 8 2 4 39 33 82 63 44 29 88 62 98 71 10 10
28 18 41 19 12 0 31 2 42 5 11 2 43 6 70 9 28 2 66 7 85 10 20 3 62 9 95 12
92 8 806 9 812 0 2 -4 9 -5 14 -1 6 3 74 7 152 9 l142 3 18 -34 c17 -35 15
-75 -6 -102 -5 -6 -7 -12 -3 -12 8 0 -22 -72 -32 -80 -14 -9 -98 -144 -112
-178 -17 -45 -6 -88 32 -120 31 -27 99 -58 141 -66 12 -3 22 -5 22 -6 0 -3 76
-20 110 -25 346 -48 564 -270 580 -590 5 -100 12 -144 26 -161 5 -6 6 -13 3
-16 -3 -3 14 -22 37 -42 37 -31 91 -54 169 -70 128 -27 174 -48 165 -76 -4
-11 -8 -30 -10 -42 -3 -13 -13 -53 -24 -91 l-18 -67 29 -21 c22 -16 32 -18 42
-9 9 7 50 10 120 7 103 -3 107 -3 135 22 39 36 49 59 46 106 -3 52 -12 73 -46
110 l-28 30 37 41 c20 23 53 61 74 85 271 323 310 369 331 391 9 10 17 20 17
23 0 3 10 16 23 29 19 20 43 48 117 137 8 9 29 34 45 54 17 21 39 47 50 60 45
51 111 129 123 146 12 17 10 20 -10 29 -13 6 -36 19 -53 30 -16 11 -43 26 -60
35 -16 8 -46 25 -65 36 -19 12 -55 33 -80 47 -25 13 -52 31 -61 38 -8 8 -20
14 -26 14 -6 0 -22 9 -35 20 -14 10 -28 16 -32 13 -3 -3 -6 -2 -6 4 0 5 -18
18 -40 28 -22 10 -40 23 -40 28 0 6 -3 7 -7 4 -3 -4 -21 4 -39 18 -18 14 -36
25 -40 25 -4 0 -29 14 -57 32 -37 24 -51 28 -57 18 -8 -13 -23 -94 -18 -96 2
0 -3 -8 -11 -17 -7 -10 -11 -17 -8 -17 3 0 -3 -29 -13 -65 -10 -36 -17 -65
-15 -65 3 0 0 -11 -5 -25 -5 -14 -12 -36 -15 -48 -2 -12 -9 -40 -15 -62 -6
-22 -12 -49 -14 -60 -2 -11 -5 -21 -6 -22 -3 -4 -5 -10 -14 -63 -5 -25 -12
-53 -17 -62 -5 -9 -11 -29 -13 -45 -2 -15 -6 -35 -9 -43 -4 -13 -13 -46 -33
-132 -2 -10 -6 -28 -9 -39 -2 -12 -13 -56 -24 -98 -11 -42 -22 -89 -25 -106
-3 -16 -14 -60 -25 -98 -11 -37 -20 -70 -20 -72 0 -3 -3 -21 -7 -41 -6 -34 -8
-35 -43 -31 -72 9 -121 41 -142 93 -16 37 -17 41 -24 156 -13 212 -107 388
-265 495 -72 49 -181 93 -265 108 -22 4 -49 10 -60 12 -11 2 -38 6 -59 9 -22
3 -48 10 -58 15 -10 5 -18 7 -18 5 0 -6 -71 18 -116 39 -49 23 -62 62 -39 120
10 26 117 188 130 197 5 4 7 8 3 8 -4 0 -3 12 3 28 26 67 36 156 20 176 -22
27 -101 39 -259 39 -86 0 -200 -3 -252 -7 -52 -4 -135 -6 -185 -5 -197 5 -657
2 -775 -4 l-125 -7 45 38 c56 46 347 336 419 417 29 33 65 74 80 90 15 17 133
161 261 320 191 237 403 495 455 551 5 6 39 44 75 84 121 136 175 194 301 322
86 87 122 131 115 138 -7 7 -6 10 2 10 7 0 12 5 12 10 0 6 -19 9 -42 8 -24 -1
-69 6 -101 16 -53 18 -59 18 -75 2 -10 -9 -23 -16 -29 -16 -6 0 -13 -3 -15 -7
-4 -11 -97 -73 -107 -73 -5 0 -11 -3 -13 -8 -1 -4 -28 -23 -58 -42 -30 -19
-57 -37 -60 -40 -5 -6 -223 -134 -304 -179 -63 -36 -195 -101 -201 -100 -4 0
-16 -6 -28 -14 -12 -8 -69 -31 -127 -51 -58 -21 -112 -40 -120 -43 -8 -3 -19
-7 -25 -9 -101 -26 -143 -37 -155 -39 -8 -2 -15 -4 -15 -5 0 -1 -15 -3 -34 -6
-19 -2 -51 -8 -70 -14 -20 -5 -61 -12 -91 -15 -30 -4 -57 -8 -60 -10 -3 -2
-36 -6 -75 -9 -38 -4 -77 -9 -85 -11 -8 -2 -49 -7 -90 -10 -41 -3 -91 -8 -110
-10 -32 -3 -33 -2 -15 12 11 8 40 26 65 41 25 14 50 31 56 37 6 5 27 19 47 30
20 11 37 23 37 27 0 5 4 8 9 8 10 0 101 58 111 70 3 3 23 17 45 30 22 13 45
28 50 33 6 4 66 49 135 99 109 80 318 242 383 298 12 10 32 27 43 37 76 65
141 121 160 138 12 11 50 45 85 75 88 76 455 443 569 569 52 57 106 116 120
131 14 14 42 47 63 73 21 25 43 52 50 59 7 7 24 29 37 48 13 19 28 38 33 41 5
3 16 17 25 31 9 14 41 60 70 104 59 86 94 157 113 225 14 51 19 140 9 154 -4
6 -10 21 -13 35 -10 39 -63 96 -111 119 -53 26 -73 31 -149 37 -33 2 -62 6
-67 9 -4 2 -9 3 -11 1z m-2409 -2670 c-20 -19 -437 -226 -455 -226 -2 0 -36
-15 -77 -34 -62 -28 -118 -53 -223 -97 -97 -40 -355 -115 -434 -125 -25 -3
-53 -7 -62 -10 -8 -2 -25 7 -38 22 l-22 26 23 22 c65 64 254 168 422 233 139
53 402 127 418 117 4 -3 8 -1 8 3 0 5 12 10 28 11 15 1 38 5 52 8 14 3 34 7
45 9 11 2 49 8 85 15 69 13 84 15 170 25 30 3 57 8 59 11 2 2 7 4 10 4 3 0 -1
-6 -9 -14z m2250 -1196 c12 -7 12 -12 2 -22 -9 -9 -12 -9 -12 1 0 10 -3 11
-13 3 -7 -6 -18 -7 -26 -2 -8 4 -21 6 -30 3 -11 -4 -13 -3 -6 5 9 9 35 18 60
21 6 0 17 -4 25 -9z m-1897 -140 c-43 -36 -174 -119 -288 -182 -122 -68 -293
-139 -370 -154 -11 -2 -45 -9 -75 -15 -91 -18 -110 -18 -110 -2 0 23 39 72 70
88 27 14 29 13 46 -12 16 -26 17 -26 25 -6 11 30 95 88 201 138 84 39 316 116
393 130 17 3 44 9 60 13 36 10 59 11 48 2z m2987 -1660 c0 -5 -5 -10 -11 -10
-5 0 -7 5 -4 10 3 6 8 10 11 10 2 0 4 -4 4 -10z m43 3 c-7 -2 -19 -2 -25 0 -7
3 -2 5 12 5 14 0 19 -2 13 -5z"/>
<path d="M6797 5263 c-3 -10 -28 -58 -54 -108 -27 -49 -80 -148 -117 -220 -38
-71 -81 -152 -96 -180 -78 -144 -219 -410 -243 -460 -11 -22 -22 -42 -26 -45
-3 -3 -42 -75 -85 -160 -44 -85 -82 -157 -85 -160 -3 -3 -27 -48 -53 -100 -27
-52 -57 -111 -68 -130 -53 -94 -420 -791 -420 -799 0 -5 -7 -14 -15 -21 -8 -7
-15 -21 -15 -30 0 -10 -4 -20 -8 -22 -5 -1 -43 -69 -85 -150 -42 -81 -97 -184
-122 -228 -24 -45 -46 -89 -47 -97 -2 -11 46 -45 156 -109 87 -52 162 -94 166
-94 4 0 18 -8 31 -18 13 -11 49 -32 79 -49 30 -17 82 -47 115 -66 33 -20 76
-44 95 -53 19 -10 37 -21 40 -24 17 -23 36 -12 60 34 15 28 55 105 90 171 35
66 77 145 92 175 16 30 44 82 62 115 17 33 57 107 87 165 30 58 56 107 59 110
3 3 17 30 32 60 43 86 139 264 150 278 6 6 7 12 3 12 -4 0 -2 6 4 14 11 13 25
38 113 206 28 52 63 118 78 145 15 28 53 100 85 160 62 117 123 233 188 355
22 41 62 118 90 170 27 52 66 124 85 160 57 105 62 114 62 127 0 6 4 13 8 15
5 2 41 66 81 143 41 77 93 176 117 221 49 90 50 94 29 94 -8 0 -15 4 -15 8 0
4 -12 13 -27 19 -16 7 -35 17 -43 22 -44 29 -193 111 -201 111 -5 0 -9 4 -9 8
0 4 -12 13 -27 20 -16 6 -46 23 -68 36 -22 14 -47 28 -55 32 -18 10 -193 109
-236 135 -30 18 -32 18 -37 2z"/>
</g>
</svg>
